<?xml version="1.0" encoding="utf-8"?>
<!-- Generator: Adobe Illustrator 16.0.0, SVG Export Plug-In . SVG Version: 6.00 Build 0)  -->
<!DOCTYPE svg PUBLIC "-//W3C//DTD SVG 1.1//EN" "http://www.w3.org/Graphics/SVG/1.1/DTD/svg11.dtd">
<svg version="1.1" id="Layer_1" xmlns="http://www.w3.org/2000/svg" xmlns:xlink="http://www.w3.org/1999/xlink" x="0px" y="0px"
	 width="501px" height="105px" viewBox="0 0 501 105" enable-background="new 0 0 501 105" xml:space="preserve">
<g id="projectLabelTree">
	<text transform="matrix(1 0 0 1 51.3066 100.6147)" font-family="Raleway,'Helvetica Neue',Helvetica,Arial,sans-serif" font-size="10.6783" font-weight="bold" font-style="italic">Project</text>
</g>
<g id="branchLabelTree">
	<text transform="matrix(1 0 0 1 415.5137 100.6147)" font-family="Raleway,'Helvetica Neue',Helvetica,Arial,sans-serif" font-size="10.6783" font-weight="bold" font-style="italic">Branches</text>
</g>
<path fill="none" stroke="#BCBEC0" stroke-width="0.7189" d="M69.71,41.522c185.07,0,185.07-31.259,370.14-31.259"/>
<path fill="none" stroke="#BCBEC0" stroke-width="0.7189" d="M69.71,41.522c185.07,0,185.07,0,370.14,0"/>
<path fill="none" stroke="#BCBEC0" stroke-width="0.7189" d="M69.71,41.522c185.07,0,185.07,31.259,370.14,31.259"/>
<path fill="#FFFFFF" stroke="#4682B4" stroke-width="1.1484" d="M439.85,68.945c2.118,0,3.834,1.715,3.834,3.835
	c0,2.12-1.716,3.837-3.834,3.837c-2.123,0-3.835-1.718-3.835-3.837C436.015,70.661,437.727,68.945,439.85,68.945z"/>
<g>
	<text transform="matrix(1 0 0 1 447.6826 75.6313)" font-family="Raleway,'Helvetica Neue',Helvetica,Arial,sans-serif" font-size="10.6783">Lipid</text>
</g>
<path fill="#FFFFFF" stroke="#4682B4" stroke-width="1.1484" d="M439.85,37.686c2.118,0,3.834,1.718,3.834,3.837
	c0,2.12-1.716,3.838-3.834,3.838c-2.123,0-3.835-1.718-3.835-3.838C436.015,39.403,437.727,37.686,439.85,37.686z"/>
<g>
	<text transform="matrix(1 0 0 1 447.6826 44.3711)" font-family="Raleway,'Helvetica Neue',Helvetica,Arial,sans-serif" font-size="10.6783">Metabolite</text>
</g>
<path fill="#FFFFFF" stroke="#4682B4" stroke-width="1.1484" d="M439.85,6.427c2.118,0,3.834,1.718,3.834,3.838
	c0,2.116-1.716,3.834-3.834,3.834c-2.123,0-3.835-1.718-3.835-3.834C436.015,8.145,437.727,6.427,439.85,6.427z"/>
<g>
	<text transform="matrix(1 0 0 1 447.6816 13.1113)" font-family="Raleway,'Helvetica Neue',Helvetica,Arial,sans-serif" font-size="10.6783">Protein</text>
</g>
<circle fill="#FFFFFF" stroke="#4682B4" stroke-width="1.1484" cx="69.71" cy="41.523" r="3.837"/>
<g>
	<rect x="4.47" y="22.946" fill="none" width="58.365" height="37.151"/>
	<text transform="matrix(1 0 0 1 12.8799 30.5933)"><tspan x="0" y="0" font-family="Raleway,'Helvetica Neue',Helvetica,Arial,sans-serif" font-size="10.6783">Amazing </tspan><tspan x="-4.734" y="12.814" font-family="Raleway,'Helvetica Neue',Helvetica,Arial,sans-serif" font-size="10.6783">Multi-Omic </tspan><tspan x="7.119" y="25.628" font-family="Raleway,'Helvetica Neue',Helvetica,Arial,sans-serif" font-size="10.6783">Study</tspan></text>
</g>
</svg>
