<?xml version="1.0" encoding="utf-8"?>
<!-- Generator: Adobe Illustrator 16.0.0, SVG Export Plug-In . SVG Version: 6.00 Build 0)  -->
<!DOCTYPE svg PUBLIC "-//W3C//DTD SVG 1.1//EN" "http://www.w3.org/Graphics/SVG/1.1/DTD/svg11.dtd">
<svg version="1.1" id="Layer_1" xmlns="http://www.w3.org/2000/svg" xmlns:xlink="http://www.w3.org/1999/xlink" x="0px" y="0px"
	 width="715px" height="194.122px" viewBox="0 0 715 194.122" enable-background="new 0 0 715 194.122" xml:space="preserve">
<text id="projectLabelTree_1_" transform="matrix(1 0 0 1 40.8477 188.2207)" font-family="Raleway,'Helvetica Neue',Helvetica,Arial,sans-serif" font-size="9.459" font-weight="bold" font-style="italic">Project</text>
<text id="branchLabelTree_1_" transform="matrix(1 0 0 1 184.1348 188.2207)" font-family="Raleway,'Helvetica Neue',Helvetica,Arial,sans-serif" font-size="9.459" font-weight="bold" font-style="italic">Branches</text>
<text id="setLabelTree_1_" transform="matrix(1 0 0 1 344.2383 188.2207)" font-family="Raleway,'Helvetica Neue',Helvetica,Arial,sans-serif" font-size="9.459" font-weight="bold" font-style="italic">Sets</text>
<text id="conditionLabelTree_1_" transform="matrix(1 0 0 1 478.0732 188.2207)" font-family="Raleway,'Helvetica Neue',Helvetica,Arial,sans-serif" font-size="9.459" font-weight="bold" font-style="italic">Conditions</text>
<text id="replicateLabelTree_1_" transform="matrix(1 0 0 1 627.6465 188.2207)" font-family="Raleway,'Helvetica Neue',Helvetica,Arial,sans-serif" font-size="9.459" font-weight="bold" font-style="italic">Replicates</text>
<path fill="none" stroke="#BCBEC0" stroke-width="0.7912" d="M354.229,148.344c74.269,0,74.269-16.546,148.537-16.546"/>
<path fill="none" stroke="#BCBEC0" stroke-width="0.7912" d="M354.229,148.344c74.269,0,74.269-5.514,148.537-5.514"/>
<path fill="none" stroke="#BCBEC0" stroke-width="0.7912" d="M354.229,148.344c74.269,0,74.269,5.516,148.537,5.516"/>
<path fill="none" stroke="#BCBEC0" stroke-width="0.7912" d="M354.229,148.344c74.269,0,74.269,16.547,148.537,16.547"/>
<path fill="none" stroke="#BCBEC0" stroke-width="0.7912" d="M205.688,148.344c74.27,0,74.27,0,148.54,0"/>
<path fill="none" stroke="#BCBEC0" stroke-width="0.7912" d="M354.229,93.19c74.269,0,74.269-16.546,148.537-16.546"/>
<path fill="none" stroke="#BCBEC0" stroke-width="0.7912" d="M354.229,93.19c74.269,0,74.269-5.516,148.537-5.516"/>
<path fill="none" stroke="#BCBEC0" stroke-width="0.7912" d="M354.229,93.19c74.269,0,74.269,5.516,148.537,5.516"/>
<path fill="none" stroke="#BCBEC0" stroke-width="0.7912" d="M354.229,93.19c74.269,0,74.269,16.546,148.537,16.546"/>
<path fill="none" stroke="#BCBEC0" stroke-width="0.7912" d="M205.688,93.19c74.27,0,74.27,0,148.54,0"/>
<path fill="none" stroke="#BCBEC0" stroke-width="0.7912" d="M354.229,38.036c74.269,0,74.269-16.546,148.537-16.546"/>
<path fill="none" stroke="#BCBEC0" stroke-width="0.7912" d="M354.229,38.036c74.269,0,74.269-5.515,148.537-5.515"/>
<path fill="none" stroke="#BCBEC0" stroke-width="0.7912" d="M354.229,38.036c74.269,0,74.269,5.516,148.537,5.516"/>
<path fill="none" stroke="#BCBEC0" stroke-width="0.7912" d="M354.229,38.036c74.269,0,74.269,16.547,148.537,16.547"/>
<path fill="none" stroke="#BCBEC0" stroke-width="0.7912" d="M205.688,38.036c74.27,0,74.27,0,148.54,0"/>
<path fill="none" stroke="#BCBEC0" stroke-width="0.7912" d="M57.15,93.19c74.271,0,74.271-55.154,148.538-55.154"/>
<path fill="none" stroke="#BCBEC0" stroke-width="0.7912" d="M57.15,93.19c74.271,0,74.271,0,148.538,0"/>
<path fill="none" stroke="#BCBEC0" stroke-width="0.7912" d="M57.15,93.19c74.271,0,74.271,55.153,148.538,55.153"/>
<path fill="none" stroke="#BCBEC0" stroke-width="0.7912" d="M502.766,21.49c74.27,0,74.27-11.031,148.539-11.031"/>
<path fill="none" stroke="#BCBEC0" stroke-width="0.7912" d="M502.766,21.49c74.27,0,74.27,0,148.539,0"/>
<path fill="none" stroke="#BCBEC0" stroke-width="0.7912" d="M502.766,21.49c74.27,0,74.27,11.031,148.539,11.031"/>
<path fill="none" stroke="#BCBEC0" stroke-width="0.7912" d="M502.766,87.675c74.27,0,74.27-11.031,148.539-11.031"/>
<path fill="none" stroke="#BCBEC0" stroke-width="0.7912" d="M502.766,87.675c74.27,0,74.27,0,148.539,0"/>
<path fill="none" stroke="#BCBEC0" stroke-width="0.7912" d="M502.766,87.675c74.27,0,74.27,11.031,148.539,11.031"/>
<path fill="none" stroke="#BCBEC0" stroke-width="0.7912" d="M502.766,153.86c74.27,0,74.27-11.03,148.539-11.03"/>
<path fill="none" stroke="#BCBEC0" stroke-width="0.7912" d="M502.766,153.86c74.27,0,74.27,0,148.539,0"/>
<path fill="none" stroke="#BCBEC0" stroke-width="0.7912" d="M502.766,153.86c74.27,0,74.27,11.031,148.539,11.031"/>
<circle fill="#B0C4DE" stroke="#4682B4" stroke-width="1.1824" cx="502.766" cy="164.891" r="3.951"/>
<g enable-background="new    ">
	<text transform="matrix(1 0 0 1 449.9238 167.4141)" font-family="Raleway,'Helvetica Neue',Helvetica,Arial,sans-serif" font-size="9.459">gene1 KO</text>
</g>
<circle fill="#FFFFFF" stroke="#4682B4" stroke-width="1.1824" cx="502.766" cy="153.861" r="3.95"/>
<g enable-background="new    ">
	<text transform="matrix(1 0 0 1 449.9238 156.3833)" font-family="Raleway,'Helvetica Neue',Helvetica,Arial,sans-serif" font-size="9.459">gene2 KO</text>
</g>
<circle fill="#B0C4DE" stroke="#4682B4" stroke-width="1.1824" cx="502.766" cy="142.829" r="3.95"/>
<g enable-background="new    ">
	<text transform="matrix(1 0 0 1 449.9238 145.3521)" font-family="Raleway,'Helvetica Neue',Helvetica,Arial,sans-serif" font-size="9.459">gene3 KO</text>
</g>
<circle fill="#FF9292" stroke="#FF2525" stroke-width="1.1824" cx="502.766" cy="131.799" r="3.95"/>
<g enable-background="new    ">
	<text transform="matrix(1 0 0 1 453.1016 134.3213)" font-family="Raleway,'Helvetica Neue',Helvetica,Arial,sans-serif" font-size="9.459">Wild-type</text>
</g>
<circle fill="#FFFFFF" stroke="#4682B4" stroke-width="1.1824" cx="354.229" cy="148.345" r="3.95"/>
<g enable-background="new    ">
	<text transform="matrix(1 0 0 1 300.8672 150.8677)" font-family="Raleway,'Helvetica Neue',Helvetica,Arial,sans-serif" font-size="9.459">Lipid-Data</text>
</g>
<circle fill="#FFFFFF" stroke="#4682B4" stroke-width="1.1824" cx="205.688" cy="148.345" r="3.95"/>
<g enable-background="new    ">
	<text transform="matrix(1 0 0 1 175.459 150.8677)" font-family="Raleway,'Helvetica Neue',Helvetica,Arial,sans-serif" font-size="9.459">Lipid</text>
</g>
<circle fill="#B0C4DE" stroke="#4682B4" stroke-width="1.1824" cx="502.766" cy="109.737" r="3.951"/>
<g enable-background="new    ">
	<text transform="matrix(1 0 0 1 449.9238 112.2598)" font-family="Raleway,'Helvetica Neue',Helvetica,Arial,sans-serif" font-size="9.459">gene1 KO</text>
</g>
<circle fill="#B0C4DE" stroke="#4682B4" stroke-width="1.1824" cx="502.766" cy="98.707" r="3.951"/>
<g enable-background="new    ">
	<text transform="matrix(1 0 0 1 449.9238 101.229)" font-family="Raleway,'Helvetica Neue',Helvetica,Arial,sans-serif" font-size="9.459">gene2 KO</text>
</g>
<circle fill="#FFFFFF" stroke="#4682B4" stroke-width="1.1824" cx="502.766" cy="87.676" r="3.95"/>
<g enable-background="new    ">
	<text transform="matrix(1 0 0 1 449.9238 90.1987)" font-family="Raleway,'Helvetica Neue',Helvetica,Arial,sans-serif" font-size="9.459">gene3 KO</text>
</g>
<circle fill="#FF9292" stroke="#FF2525" stroke-width="1.1824" cx="502.766" cy="76.645" r="3.95"/>
<g enable-background="new    ">
	<text transform="matrix(1 0 0 1 453.1016 79.168)" font-family="Raleway,'Helvetica Neue',Helvetica,Arial,sans-serif" font-size="9.459">Wild-type</text>
</g>
<circle fill="#FFFFFF" stroke="#4682B4" stroke-width="1.1824" cx="354.229" cy="93.191" r="3.95"/>
<g enable-background="new    ">
	<text transform="matrix(1 0 0 1 277.2109 95.7139)" font-family="Raleway,'Helvetica Neue',Helvetica,Arial,sans-serif" font-size="9.459">Metabolite-Data</text>
</g>
<circle fill="#FFFFFF" stroke="#4682B4" stroke-width="1.1824" cx="205.688" cy="93.191" r="3.951"/>
<g enable-background="new    ">
	<text transform="matrix(1 0 0 1 151.8008 95.7139)" font-family="Raleway,'Helvetica Neue',Helvetica,Arial,sans-serif" font-size="9.459">Metabolite</text>
</g>
<circle fill="#B0C4DE" stroke="#4682B4" stroke-width="1.1824" cx="502.766" cy="54.583" r="3.95"/>
<g enable-background="new    ">
	<text transform="matrix(1 0 0 1 449.9238 57.1064)" font-family="Raleway,'Helvetica Neue',Helvetica,Arial,sans-serif" font-size="9.459">gene1 KO</text>
</g>
<circle fill="#B0C4DE" stroke="#4682B4" stroke-width="1.1824" cx="502.766" cy="43.553" r="3.95"/>
<g enable-background="new    ">
	<text transform="matrix(1 0 0 1 449.9238 46.0757)" font-family="Raleway,'Helvetica Neue',Helvetica,Arial,sans-serif" font-size="9.459">gene2 KO</text>
</g>
<circle fill="#B0C4DE" stroke="#4682B4" stroke-width="1.1824" cx="502.766" cy="32.522" r="3.951"/>
<g enable-background="new    ">
	<text transform="matrix(1 0 0 1 449.9238 35.0454)" font-family="Raleway,'Helvetica Neue',Helvetica,Arial,sans-serif" font-size="9.459">gene3 KO</text>
</g>
<circle fill="#FFFFFF" stroke="#FF2525" stroke-width="1.1824" cx="502.766" cy="21.492" r="3.95"/>
<g enable-background="new    ">
	<text transform="matrix(1 0 0 1 453.1016 24.0146)" font-family="Raleway,'Helvetica Neue',Helvetica,Arial,sans-serif" font-size="9.459">Wild-type</text>
</g>
<circle fill="#FFFFFF" stroke="#4682B4" stroke-width="1.1824" cx="354.229" cy="38.037" r="3.95"/>
<g enable-background="new    ">
	<text transform="matrix(1 0 0 1 291.4023 40.5596)" font-family="Raleway,'Helvetica Neue',Helvetica,Arial,sans-serif" font-size="9.459">Protein Data</text>
</g>
<circle fill="#FFFFFF" stroke="#4682B4" stroke-width="1.1824" cx="205.688" cy="38.037" r="3.95"/>
<g enable-background="new    ">
	<text transform="matrix(1 0 0 1 165.4727 40.5596)" font-family="Raleway,'Helvetica Neue',Helvetica,Arial,sans-serif" font-size="9.459">Protein</text>
</g>
<circle fill="#FFFFFF" stroke="#4682B4" stroke-width="1.1824" cx="57.15" cy="93.191" r="3.951"/>
<circle fill="#FFFFFF" stroke="#FF2525" stroke-width="1.1824" cx="651.305" cy="32.522" r="3.951"/>
<g enable-background="new    ">
	<text transform="matrix(1 0 0 1 661.5547 35.0449)" font-family="Raleway,'Helvetica Neue',Helvetica,Arial,sans-serif" font-size="9.459">Wild-type-1</text>
</g>
<circle fill="#FFFFFF" stroke="#FF2525" stroke-width="1.1824" cx="651.305" cy="21.491" r="3.951"/>
<g enable-background="new    ">
	<text transform="matrix(1 0 0 1 661.5547 24.0142)" font-family="Raleway,'Helvetica Neue',Helvetica,Arial,sans-serif" font-size="9.459">Wild-type-2</text>
</g>
<circle fill="#FFFFFF" stroke="#FF2525" stroke-width="1.1824" cx="651.305" cy="10.461" r="3.951"/>
<g enable-background="new    ">
	<text transform="matrix(1 0 0 1 661.5547 12.9834)" font-family="Raleway,'Helvetica Neue',Helvetica,Arial,sans-serif" font-size="9.459">Wild-type-3</text>
</g>
<circle fill="#FFFFFF" stroke="#4682B4" stroke-width="1.1824" cx="651.305" cy="98.707" r="3.95"/>
<g enable-background="new    ">
	<text transform="matrix(1 0 0 1 661.5547 101.2295)" font-family="Raleway,'Helvetica Neue',Helvetica,Arial,sans-serif" font-size="9.459">gene3 KO-1</text>
</g>
<circle fill="#FFFFFF" stroke="#4682B4" stroke-width="1.1824" cx="651.305" cy="87.677" r="3.95"/>
<g enable-background="new    ">
	<text transform="matrix(1 0 0 1 661.5547 90.1982)" font-family="Raleway,'Helvetica Neue',Helvetica,Arial,sans-serif" font-size="9.459">gene3 KO-2</text>
</g>
<circle fill="#FFFFFF" stroke="#4682B4" stroke-width="1.1824" cx="651.305" cy="76.644" r="3.95"/>
<g enable-background="new    ">
	<text transform="matrix(1 0 0 1 661.5547 79.167)" font-family="Raleway,'Helvetica Neue',Helvetica,Arial,sans-serif" font-size="9.459">gene3 KO-3</text>
</g>
<circle fill="#FFFFFF" stroke="#4682B4" stroke-width="1.1824" cx="651.305" cy="164.891" r="3.951"/>
<g enable-background="new    ">
	<text transform="matrix(1 0 0 1 661.5547 167.4141)" font-family="Raleway,'Helvetica Neue',Helvetica,Arial,sans-serif" font-size="9.459">gene2 KO-1</text>
</g>
<circle fill="#FFFFFF" stroke="#4682B4" stroke-width="1.1824" cx="651.305" cy="153.861" r="3.951"/>
<g enable-background="new    ">
	<text transform="matrix(1 0 0 1 661.5547 156.3833)" font-family="Raleway,'Helvetica Neue',Helvetica,Arial,sans-serif" font-size="9.459">gene2 KO-2</text>
</g>
<circle fill="#FFFFFF" stroke="#4682B4" stroke-width="1.1824" cx="651.305" cy="142.83" r="3.951"/>
<g enable-background="new    ">
	<text transform="matrix(1 0 0 1 661.5547 145.3525)" font-family="Raleway,'Helvetica Neue',Helvetica,Arial,sans-serif" font-size="9.459">gene2 KO-3</text>
</g>
<g>
	<rect x="2.25" y="77.478" fill="none" width="46.674" height="31.427"/>
	<text transform="matrix(1 0 0 1 7.1865 84.25)"><tspan x="0" y="0" font-family="Raleway,'Helvetica Neue',Helvetica,Arial,sans-serif" font-size="9.459">Amazing </tspan><tspan x="-4.194" y="11.351" font-family="Raleway,'Helvetica Neue',Helvetica,Arial,sans-serif" font-size="9.459">Multi-Omic </tspan><tspan x="6.307" y="22.702" font-family="Raleway,'Helvetica Neue',Helvetica,Arial,sans-serif" font-size="9.459">Study</tspan></text>
</g>
</svg>
