<?xml version="1.0" encoding="utf-8"?>
<!-- Generator: Adobe Illustrator 16.0.0, SVG Export Plug-In . SVG Version: 6.00 Build 0)  -->
<!DOCTYPE svg PUBLIC "-//W3C//DTD SVG 1.1//EN" "http://www.w3.org/Graphics/SVG/1.1/DTD/svg11.dtd">
<svg version="1.1" id="Layer_1" xmlns="http://www.w3.org/2000/svg" xmlns:xlink="http://www.w3.org/1999/xlink" x="0px" y="0px"
	 width="431px" height="83px" viewBox="0 0 431 83" enable-background="new 0 0 431 83" xml:space="preserve">
<g>
	<g>
		<g>
			<text transform="matrix(1 0 0 1 14.6318 77.3174)"><tspan x="0" y="0" font-family="Raleway,'Helvetica Neue',Helvetica,Arial,sans-serif" font-size="11.4716">Δ</tspan><tspan x="7.663" y="0" font-family="Raleway,'Helvetica Neue',Helvetica,Arial,sans-serif" font-size="11.4716">gene1</tspan></text>
			<g>
				<g>
					<polygon id="XMLID_229_" fill="#ECF0F1" points="43.351,27.68 51.776,27.68 51.776,38.917 61.608,54.369 58.803,57.177 
						36.326,57.177 33.514,54.369 43.351,38.917 					"/>
					<circle id="XMLID_228_" fill="#5856C6" cx="51.777" cy="46.643" r="2.108"/>
					<polygon id="XMLID_227_" fill="#BDC3C7" points="47.563,27.68 47.563,57.177 36.326,57.177 33.514,54.369 43.351,38.917 
						43.351,27.68 					"/>
					<circle id="XMLID_226_" fill="#5856C6" cx="46.159" cy="45.939" r="2.808"/>
					<path id="XMLID_225_" fill="#42428E" d="M37.729,55.771h21.074c0.467-0.56,0.934-0.981,1.399-1.402
						c-1.869-2.81-3.743-5.62-5.617-8.43H40.539l-5.619,8.43c0.468,0.42,0.938,0.842,1.406,1.402H37.729z"/>
					<path id="XMLID_224_" fill="#5856C6" d="M54.585,45.939l5.617,8.43c-0.465,0.42-0.933,0.842-1.399,1.402h-1.408h-9.832v-9.832
						H54.585z"/>
					<polygon id="XMLID_223_" fill="#42428E" points="40.539,45.939 39.618,47.344 55.507,47.344 54.585,45.939 40.539,45.939 					
						"/>
					<polygon id="XMLID_222_" fill="#BDC3C7" points="34.92,55.771 36.326,57.177 58.803,57.177 60.202,55.771 					"/>
				</g>
				<g>
					<polygon id="XMLID_221_" fill="#ECF0F1" points="17.034,27.68 25.464,27.68 25.464,38.917 35.295,54.371 32.485,57.179 
						10.01,57.179 7.2,54.371 17.034,38.917 					"/>
					<circle id="XMLID_220_" fill="#5856C6" cx="25.462" cy="46.645" r="2.107"/>
					<polygon id="XMLID_219_" fill="#BDC3C7" points="21.247,27.68 21.247,57.179 10.01,57.179 7.2,54.371 17.034,38.917 
						17.034,27.68 					"/>
					<circle id="XMLID_218_" fill="#5856C6" cx="19.843" cy="45.94" r="2.809"/>
					<path id="XMLID_217_" fill="#42428E" d="M11.415,55.774h21.07c0.47-0.563,0.938-0.982,1.405-1.403
						c-1.873-2.811-3.746-5.62-5.619-8.431H14.225l-5.619,8.431c0.468,0.42,0.938,0.84,1.404,1.403H11.415z"/>
					<path id="XMLID_216_" fill="#5856C6" d="M28.271,45.94l5.619,8.431c-0.467,0.42-0.936,0.84-1.405,1.403H31.08h-9.833V45.94
						H28.271z"/>
					<polygon id="XMLID_215_" fill="#42428E" points="14.225,45.94 13.303,47.345 29.192,47.345 28.271,45.94 14.225,45.94 					"/>
					<polygon id="XMLID_214_" fill="#BDC3C7" points="8.605,55.774 10.01,57.179 32.485,57.179 33.89,55.774 					"/>
				</g>
				<g id="XMLID_205_">
					<polygon id="XMLID_213_" fill="#ECF0F1" points="30.19,33.892 38.618,33.892 38.618,45.129 48.452,60.581 45.641,63.389 
						23.167,63.389 20.356,60.581 30.19,45.129 					"/>
					<circle id="XMLID_212_" fill="#5856C6" cx="38.618" cy="52.854" r="2.107"/>
					<polygon id="XMLID_211_" fill="#BDC3C7" points="34.405,33.892 34.405,63.389 23.167,63.389 20.356,60.581 30.19,45.129 
						30.19,33.892 					"/>
					<circle id="XMLID_210_" fill="#5856C6" cx="33" cy="52.152" r="2.809"/>
					<path id="XMLID_209_" fill="#42428E" d="M24.572,61.984h21.069c0.469-0.561,0.938-0.983,1.405-1.403
						c-1.872-2.809-3.745-5.62-5.619-8.429H27.382l-5.621,8.429c0.468,0.42,0.938,0.842,1.406,1.403H24.572z"/>
					<path id="XMLID_208_" fill="#5856C6" d="M41.427,52.152l5.619,8.429c-0.467,0.42-0.937,0.842-1.405,1.403h-1.405h-9.831v-9.832
						H41.427z"/>
					<polygon id="XMLID_207_" fill="#42428E" points="27.382,52.152 26.457,53.557 42.348,53.557 41.427,52.152 27.382,52.152 					
						"/>
					<polygon id="XMLID_206_" fill="#BDC3C7" points="21.761,61.984 23.167,63.389 45.641,63.389 47.046,61.984 					"/>
				</g>
			</g>
		</g>
		<g>
			<text transform="matrix(1 0 0 1 87.3223 77.3174)"><tspan x="0" y="0" font-family="Raleway,'Helvetica Neue',Helvetica,Arial,sans-serif" font-size="11.4716">Δ</tspan><tspan x="7.662" y="0" font-family="Raleway,'Helvetica Neue',Helvetica,Arial,sans-serif" font-size="11.4716" font-style="italic">gene2</tspan></text>
			<g>
				<g>
					<polygon id="XMLID_204_" fill="#ECF0F1" points="116.073,27.68 124.5,27.68 124.5,38.917 134.331,54.369 131.525,57.177 
						109.049,57.177 106.237,54.369 116.073,38.917 					"/>
					<circle id="XMLID_203_" fill="#5AC8FA" cx="124.5" cy="46.642" r="2.109"/>
					<polygon id="XMLID_202_" fill="#BDC3C7" points="120.286,27.68 120.286,57.177 109.049,57.177 106.237,54.369 116.073,38.917 
						116.073,27.68 					"/>
					<path id="XMLID_201_" fill="#5AC8FA" d="M121.69,45.939c0,1.551-1.26,2.81-2.808,2.81c-1.553,0-2.81-1.258-2.81-2.81
						c0-1.551,1.257-2.81,2.81-2.81C120.431,43.129,121.69,44.389,121.69,45.939z"/>
					<path id="XMLID_200_" fill="#26A6D3" d="M110.452,55.771h21.074c0.467-0.56,0.935-0.981,1.4-1.402
						c-1.869-2.81-3.743-5.62-5.617-8.43h-14.046l-5.619,8.43c0.469,0.421,0.938,0.842,1.407,1.402H110.452z"/>
					<path id="XMLID_199_" fill="#5AC8FA" d="M127.308,45.939l5.617,8.43c-0.465,0.421-0.933,0.842-1.4,1.402h-1.408h-9.832v-9.832
						H127.308z"/>
					<polygon id="XMLID_198_" fill="#26A6D3" points="113.262,45.939 112.341,47.344 128.229,47.344 127.308,45.939 113.262,45.939 
											"/>
					<polygon id="XMLID_197_" fill="#BDC3C7" points="107.643,55.771 109.049,57.177 131.525,57.177 132.925,55.771 					"/>
				</g>
				<g>
					<polygon id="XMLID_196_" fill="#ECF0F1" points="89.757,27.68 98.187,27.68 98.187,38.917 108.018,54.371 105.208,57.179 
						82.732,57.179 79.923,54.371 89.757,38.917 					"/>
					<circle id="XMLID_195_" fill="#5AC8FA" cx="98.185" cy="46.645" r="2.108"/>
					<polygon id="XMLID_194_" fill="#BDC3C7" points="93.97,27.68 93.97,57.179 82.732,57.179 79.923,54.371 89.757,38.917 
						89.757,27.68 					"/>
					<circle id="XMLID_193_" fill="#5AC8FA" cx="92.566" cy="45.94" r="2.809"/>
					<path id="XMLID_192_" fill="#26A6D3" d="M84.138,55.773h21.07c0.47-0.562,0.938-0.983,1.406-1.402
						c-1.873-2.811-3.746-5.62-5.619-8.431H86.948l-5.619,8.431c0.468,0.419,0.937,0.84,1.404,1.402H84.138z"/>
					<path id="XMLID_191_" fill="#5AC8FA" d="M100.994,45.94l5.619,8.431c-0.468,0.419-0.936,0.84-1.406,1.402h-1.405H93.97V45.94
						H100.994z"/>
					<polygon id="XMLID_190_" fill="#26A6D3" points="86.948,45.94 86.026,47.345 101.915,47.345 100.994,45.94 86.948,45.94 					
						"/>
					<polygon id="XMLID_189_" fill="#BDC3C7" points="81.329,55.773 82.732,57.179 105.208,57.179 106.613,55.773 					"/>
				</g>
				<g id="XMLID_180_">
					<polygon id="XMLID_188_" fill="#ECF0F1" points="102.914,33.892 111.341,33.892 111.341,45.129 121.175,60.58 118.364,63.389 
						95.889,63.389 93.08,60.58 102.914,45.129 					"/>
					<circle id="XMLID_187_" fill="#5AC8FA" cx="111.341" cy="52.854" r="2.107"/>
					<polygon id="XMLID_186_" fill="#BDC3C7" points="107.127,33.892 107.127,63.389 95.889,63.389 93.08,60.58 102.914,45.129 
						102.914,33.892 					"/>
					<circle id="XMLID_185_" fill="#5AC8FA" cx="105.723" cy="52.152" r="2.809"/>
					<path id="XMLID_184_" fill="#26A6D3" d="M97.294,61.984h21.069c0.468-0.562,0.938-0.983,1.405-1.404
						c-1.873-2.808-3.745-5.619-5.619-8.428h-14.045l-5.621,8.428c0.467,0.421,0.938,0.842,1.405,1.404H97.294z"/>
					<path id="XMLID_183_" fill="#5AC8FA" d="M114.15,52.152l5.619,8.428c-0.467,0.421-0.937,0.842-1.405,1.404h-1.405h-9.832
						v-9.832H114.15z"/>
					<polygon id="XMLID_182_" fill="#26A6D3" points="100.105,52.152 99.18,53.556 115.07,53.556 114.15,52.152 100.105,52.152 
											"/>
					<polygon id="XMLID_181_" fill="#BDC3C7" points="94.484,61.984 95.889,63.389 118.364,63.389 119.769,61.984 					"/>
				</g>
			</g>
		</g>
		<g>
			<text transform="matrix(1 0 0 1 160.0732 77.3174)"><tspan x="0" y="0" font-family="Raleway,'Helvetica Neue',Helvetica,Arial,sans-serif" font-size="11.4716">Δ</tspan><tspan x="7.663" y="0" font-family="Raleway,'Helvetica Neue',Helvetica,Arial,sans-serif" font-size="11.4716">gene3</tspan></text>
			<g>
				<g>
					<polygon id="XMLID_179_" fill="#ECF0F1" points="188.797,27.68 197.223,27.68 197.223,38.917 207.054,54.369 204.249,57.177 
						181.772,57.177 178.96,54.369 188.797,38.917 					"/>
					<circle id="XMLID_178_" fill="#FF2D55" cx="197.222" cy="46.642" r="2.109"/>
					<polygon id="XMLID_177_" fill="#BDC3C7" points="193.009,27.68 193.009,57.177 181.772,57.177 178.96,54.369 188.797,38.917 
						188.797,27.68 					"/>
					<path id="XMLID_176_" fill="#FF2D55" d="M194.413,45.94c0,1.551-1.26,2.809-2.808,2.809c-1.553,0-2.809-1.258-2.809-2.809
						c0-1.552,1.256-2.811,2.809-2.811C193.153,43.13,194.413,44.389,194.413,45.94z"/>
					<path id="XMLID_175_" fill="#D32951" d="M183.175,55.771h21.074c0.466-0.56,0.934-0.981,1.4-1.402
						c-1.869-2.81-3.743-5.619-5.618-8.428h-14.046l-5.619,8.428c0.468,0.421,0.938,0.843,1.406,1.402H183.175z"/>
					<path id="XMLID_174_" fill="#FF2D55" d="M200.031,45.94l5.618,8.428c-0.466,0.421-0.934,0.843-1.4,1.402h-1.408h-9.832V45.94
						H200.031z"/>
					<polygon id="XMLID_173_" fill="#D32951" points="185.984,45.94 185.064,47.344 200.952,47.344 200.031,45.94 185.984,45.94 
											"/>
					<polygon id="XMLID_172_" fill="#BDC3C7" points="180.366,55.771 181.772,57.177 204.249,57.177 205.648,55.771 					"/>
				</g>
				<g>
					<polygon id="XMLID_171_" fill="#ECF0F1" points="162.479,27.68 170.91,27.68 170.91,38.917 180.741,54.372 177.931,57.179 
						155.455,57.179 152.646,54.372 162.479,38.917 					"/>
					<circle id="XMLID_170_" fill="#FF2D55" cx="170.908" cy="46.645" r="2.108"/>
					<polygon id="XMLID_169_" fill="#BDC3C7" points="166.693,27.68 166.693,57.179 155.455,57.179 152.646,54.372 162.479,38.917 
						162.479,27.68 					"/>
					<circle id="XMLID_168_" fill="#FF2D55" cx="165.289" cy="45.941" r="2.809"/>
					<path id="XMLID_167_" fill="#D32951" d="M156.861,55.774h21.07c0.47-0.563,0.938-0.982,1.405-1.402
						c-1.873-2.811-3.746-5.621-5.619-8.43H159.67l-5.619,8.43c0.468,0.42,0.937,0.84,1.403,1.402H156.861z"/>
					<path id="XMLID_166_" fill="#FF2D55" d="M173.717,45.941l5.619,8.43c-0.467,0.42-0.936,0.84-1.405,1.402h-1.405h-9.832v-9.833
						H173.717z"/>
					<polygon id="XMLID_165_" fill="#D32951" points="159.67,45.941 158.749,47.346 174.638,47.346 173.717,45.941 159.67,45.941 
											"/>
					<polygon id="XMLID_164_" fill="#BDC3C7" points="154.052,55.774 155.455,57.179 177.931,57.179 179.336,55.774 					"/>
				</g>
				<g id="XMLID_155_">
					<polygon id="XMLID_163_" fill="#ECF0F1" points="175.637,33.892 184.064,33.892 184.064,45.129 193.898,60.581 191.086,63.389 
						168.612,63.389 165.802,60.581 175.637,45.129 					"/>
					<circle id="XMLID_162_" fill="#FF2D55" cx="184.064" cy="52.854" r="2.107"/>
					<polygon id="XMLID_161_" fill="#BDC3C7" points="179.85,33.892 179.85,63.389 168.612,63.389 165.802,60.581 175.637,45.129 
						175.637,33.892 					"/>
					<circle id="XMLID_160_" fill="#FF2D55" cx="178.446" cy="52.152" r="2.809"/>
					<path id="XMLID_159_" fill="#D32951" d="M170.018,61.984h21.069c0.468-0.56,0.938-0.983,1.405-1.403
						c-1.873-2.808-3.745-5.619-5.619-8.429h-14.045l-5.621,8.429c0.468,0.42,0.938,0.843,1.406,1.403H170.018z"/>
					<path id="XMLID_158_" fill="#FF2D55" d="M186.873,52.152l5.619,8.429c-0.467,0.42-0.937,0.843-1.405,1.403h-1.405h-9.832
						v-9.832H186.873z"/>
					<polygon id="XMLID_157_" fill="#D32951" points="172.828,52.152 171.903,53.557 187.793,53.557 186.873,52.152 172.828,52.152 
											"/>
					<polygon id="XMLID_156_" fill="#BDC3C7" points="167.207,61.984 168.612,63.389 191.086,63.389 192.492,61.984 					"/>
				</g>
			</g>
		</g>
		<g>
			<text transform="matrix(1 0 0 1 228.6699 77.3174)" font-family="Raleway,'Helvetica Neue',Helvetica,Arial,sans-serif" font-size="11.4716">Wild-type</text>
			<g>
				<g>
					<polygon id="XMLID_154_" fill="#ECF0F1" points="261.52,27.68 269.946,27.68 269.946,38.917 279.777,54.369 276.972,57.177 
						254.495,57.177 251.683,54.369 261.52,38.917 					"/>
					<circle id="XMLID_153_" fill="#FF9500" cx="269.945" cy="46.642" r="2.108"/>
					<polygon id="XMLID_151_" fill="#BDC3C7" points="265.731,27.68 265.731,57.177 254.495,57.177 251.683,54.369 261.52,38.917 
						261.52,27.68 					"/>
					<path id="XMLID_148_" fill="#FF9500" d="M267.136,45.94c0,1.55-1.259,2.809-2.807,2.809c-1.553,0-2.81-1.259-2.81-2.809
						c0-1.552,1.256-2.811,2.81-2.811C265.877,43.13,267.136,44.389,267.136,45.94z"/>
					<path id="XMLID_145_" fill="#D87805" d="M255.898,55.771h21.073c0.466-0.561,0.934-0.981,1.4-1.402
						c-1.869-2.81-3.744-5.619-5.618-8.428h-14.046l-5.619,8.428c0.468,0.421,0.938,0.842,1.406,1.402H255.898z"/>
					<path id="XMLID_140_" fill="#FF9500" d="M272.754,45.94l5.618,8.428c-0.466,0.421-0.934,0.842-1.4,1.402h-1.408h-9.832V45.94
						H272.754z"/>
					<polygon id="XMLID_137_" fill="#D87805" points="258.708,45.94 257.787,47.344 273.675,47.344 272.754,45.94 258.708,45.94 
											"/>
					<polygon id="XMLID_134_" fill="#BDC3C7" points="253.089,55.771 254.495,57.177 276.972,57.177 278.372,55.771 					"/>
				</g>
				<g>
					<polygon id="XMLID_128_" fill="#ECF0F1" points="235.203,27.68 243.633,27.68 243.633,38.917 253.464,54.371 250.654,57.179 
						228.178,57.179 225.369,54.371 235.203,38.917 					"/>
					<circle id="XMLID_125_" fill="#FF9500" cx="243.631" cy="46.645" r="2.108"/>
					<polygon id="XMLID_122_" fill="#BDC3C7" points="239.417,27.68 239.417,57.179 228.178,57.179 225.369,54.371 235.203,38.917 
						235.203,27.68 					"/>
					<circle id="XMLID_118_" fill="#FF9500" cx="238.012" cy="45.941" r="2.809"/>
					<path id="XMLID_117_" fill="#D87805" d="M229.584,55.774h21.07c0.47-0.563,0.938-0.982,1.406-1.403
						c-1.874-2.811-3.746-5.62-5.62-8.43h-14.046l-5.619,8.43c0.468,0.42,0.937,0.839,1.404,1.403H229.584z"/>
					<path id="XMLID_116_" fill="#FF9500" d="M246.44,45.941l5.62,8.43c-0.468,0.42-0.936,0.839-1.406,1.403h-1.405h-9.832v-9.833
						H246.44z"/>
					<polygon id="XMLID_115_" fill="#D87805" points="232.394,45.941 231.472,47.346 247.361,47.346 246.44,45.941 232.394,45.941 
											"/>
					<polygon id="XMLID_114_" fill="#BDC3C7" points="226.774,55.774 228.178,57.179 250.654,57.179 252.06,55.774 					"/>
				</g>
				<g id="XMLID_4_">
					<polygon id="XMLID_113_" fill="#ECF0F1" points="248.359,33.892 256.787,33.892 256.787,45.129 266.621,60.581 263.81,63.389 
						241.335,63.389 238.525,60.581 248.359,45.129 					"/>
					<circle id="XMLID_112_" fill="#FF9500" cx="256.787" cy="52.854" r="2.107"/>
					<polygon id="XMLID_111_" fill="#BDC3C7" points="252.573,33.892 252.573,63.389 241.335,63.389 238.525,60.581 248.359,45.129 
						248.359,33.892 					"/>
					<circle id="XMLID_110_" fill="#FF9500" cx="251.168" cy="52.152" r="2.809"/>
					<path id="XMLID_109_" fill="#D87805" d="M242.74,61.984h21.069c0.469-0.56,0.938-0.983,1.405-1.403
						c-1.872-2.809-3.745-5.619-5.618-8.429h-14.046l-5.621,8.429c0.467,0.42,0.938,0.843,1.405,1.403H242.74z"/>
					<path id="XMLID_108_" fill="#FF9500" d="M259.597,52.152l5.618,8.429c-0.467,0.42-0.937,0.843-1.405,1.403h-1.405h-9.831
						v-9.832H259.597z"/>
					<polygon id="XMLID_107_" fill="#D87805" points="245.551,52.152 244.626,53.557 260.516,53.557 259.597,52.152 245.551,52.152 
											"/>
					<polygon id="XMLID_106_" fill="#BDC3C7" points="239.93,61.984 241.335,63.389 263.81,63.389 265.215,61.984 					"/>
				</g>
			</g>
		</g>
	</g>
	
		<line fill="none" stroke="#000000" stroke-width="0.7621" stroke-miterlimit="10" stroke-dasharray="1.2702,1.2702" x1="107.127" y1="23.477" x2="107.127" y2="13.654"/>
	
		<line fill="none" stroke="#000000" stroke-width="0.7621" stroke-miterlimit="10" stroke-dasharray="1.2702,1.2702" x1="179.85" y1="23.477" x2="179.85" y2="13.654"/>
	<polyline fill="none" stroke="#000000" stroke-width="0.7621" stroke-miterlimit="10" stroke-dasharray="1.2702,1.2702" points="
		34.404,23.477 34.404,13.654 252.573,13.654 252.573,23.477 	"/>
	<circle fill="#231F20" stroke="#FFFFFF" stroke-width="0.5843" stroke-miterlimit="10" cx="34.404" cy="23.646" r="1.87"/>
	<circle fill="#231F20" stroke="#FFFFFF" stroke-width="0.5843" stroke-miterlimit="10" cx="107.127" cy="23.646" r="1.87"/>
	<circle fill="#231F20" stroke="#FFFFFF" stroke-width="0.5843" stroke-miterlimit="10" cx="179.85" cy="23.646" r="1.87"/>
	<circle fill="#231F20" stroke="#FFFFFF" stroke-width="0.5843" stroke-miterlimit="10" cx="252.573" cy="23.646" r="1.87"/>
	<rect x="292.223" y="39.862" fill="none" width="145.578" height="26.117"/>
	<text transform="matrix(1 0 0 1 301.9053 48.0742)"><tspan x="0" y="0" font-family="Raleway,'Helvetica Neue',Helvetica,Arial,sans-serif" font-size="11.4697">Proteomic, Metabolomic, </tspan><tspan x="5.407" y="13.763" font-family="Raleway,'Helvetica Neue',Helvetica,Arial,sans-serif" font-size="11.4697">and Lipidomic Profiling</tspan></text>
	<circle fill="#231F20" stroke="#FFFFFF" stroke-width="0.5843" stroke-miterlimit="10" cx="364.866" cy="33.157" r="1.87"/>
	<polyline fill="none" stroke="#000000" stroke-width="0.7338" stroke-miterlimit="10" stroke-dasharray="1.2231,1.2231" points="
		143.472,13.146 143.472,3.323 143.259,3.323 365.011,3.323 364.776,3.323 364.776,35.026 	"/>
</g>
</svg>
